# xmcd
#
# Track frame offsets: 
#        150
#        23884
#        37914
#        52158
#        66282
#        78923
#        91670
#        105398
#        118711
#        131693
#        143891
#        156113
#
# Disc length: 2216 seconds
#
# Revision: 1
# Processed by: cddbd v1.5.2PL0 Copyright (c) Steve Scherf et al.
# Submitted via: ExactAudioCopy v0.99pb3
#
DISCID=9808a60c
DTITLE=Ray Charles - Songbook Collection [Ray Charles], Vol. 4
DYEAR=2006
DGENRE=R&B
TTITLE0=Night Time Is The Right Time (Live)
TTITLE1=Crying Time (Live)
TTITLE2=Blues Is My Middle Name
TTITLE3=Walkin' And Talkin'
TTITLE4=Don't Put All Your Dreams In One Basket
TTITLE5=Lonely Boy
TTITLE6=I'm Going Down To The River
TTITLE7=Alone In The City
TTITLE8=Baby, Won't You Please Come Home
TTITLE9=I Will Not Let You Go
TTITLE10=Tell Me How Do You Feel
TTITLE11=I'm Movin' On (Live)
EXTD=
EXTT0=
EXTT1=
EXTT2=
EXTT3=
EXTT4=
EXTT5=
EXTT6=
EXTT7=
EXTT8=
EXTT9=
EXTT10=
EXTT11=
PLAYORDER=
